<?xml version="1.0" encoding="UTF-8" standalone="no"?>
<!DOCTYPE svg PUBLIC "-//W3C//DTD SVG 1.1//EN" "http://www.w3.org/Graphics/SVG/1.1/DTD/svg11.dtd">
<svg width="100%" height="100%" viewBox="0 0 116 170" version="1.1" xmlns="http://www.w3.org/2000/svg" xmlns:xlink="http://www.w3.org/1999/xlink" xml:space="preserve" xmlns:serif="http://www.serif.com/" style="fill-rule:evenodd;clip-rule:evenodd;stroke-linejoin:round;stroke-miterlimit:2;">
    <g transform="matrix(0.134557,0,0,-0.134557,-26.3614,210.624)">
        <path d="M616,1562C614,1558 591,1503 565,1440C539,1377 516,1322 514,1318C511,1314 487,1327 459,1347C432,1366 408,1381 406,1379C404,1377 398,1342 391,1301C382,1241 382,1225 392,1219C407,1209 415,1222 424,1273C432,1315 436,1317 469,1291L493,1272L471,1216C456,1180 450,1151 454,1134C458,1119 463,1110 465,1112C469,1116 553,1314 618,1473C632,1508 636,1511 664,1506C680,1502 695,1498 697,1497C698,1495 650,1400 589,1286L477,1078L498,1058L518,1037L584,1169C621,1241 653,1300 658,1300C662,1299 675,1294 687,1287C709,1275 708,1273 634,1141C579,1041 563,1004 572,998C588,988 600,988 600,998C600,1002 640,1076 689,1164L778,1322L795,1290C804,1273 809,1252 806,1244C803,1236 764,1173 720,1104C676,1035 640,975 640,969C640,964 651,960 664,960C690,960 687,957 815,1165C852,1226 898,1299 917,1329L952,1382L980,1349L1008,1315L987,1285C975,1269 915,1189 853,1107C791,1026 740,957 740,955C740,953 746,952 753,954C759,957 777,961 792,964C809,968 837,994 871,1036C916,1093 925,1100 931,1084C948,1042 940,1020 900,991C864,965 861,960 877,952C890,944 904,949 937,971C960,987 982,1005 985,1010C988,1015 982,1054 971,1097L951,1174L1004,1244L1058,1313L1007,1382C979,1419 953,1450 950,1450C947,1450 930,1424 912,1392C894,1361 871,1324 861,1311L843,1287L815,1339C785,1393 773,1401 763,1373C759,1363 750,1345 742,1333C728,1311 727,1311 699,1327C683,1337 670,1347 670,1351C670,1355 689,1393 711,1435C734,1477 751,1513 749,1515C737,1525 620,1567 616,1562Z" style="fill:white;fill-rule:nonzero;stroke:white;stroke-width:7.43px;"/>
        <path d="M333,1184C326,1165 192,306 196,302C197,300 238,332 287,374C698,725 885,887 888,897C890,903 877,916 860,925C835,938 820,939 771,930C621,903 451,1009 417,1151C413,1165 399,1182 385,1188C351,1204 341,1203 333,1184ZM336,836C325,811 311,791 307,790C293,790 288,820 294,865L301,910L329,895L357,881L336,836ZM500,850C591,804 593,686 504,664C437,647 340,717 340,783C340,860 418,892 500,850ZM638,722L661,704L621,672C572,633 538,636 570,677C581,691 590,711 590,721C590,745 608,745 638,722Z" style="fill:white;fill-rule:nonzero;stroke:white;stroke-width:7.43px;"/>
        <g transform="matrix(3.90376,-2.32253,-2.48846,-4.18266,438.588,929.3)">
            <g transform="matrix(29.9602,0,0,29.9602,32.6143,40.3368)">
            </g>
            <text x="9.31px" y="40.337px" style="font-family:'Helvetica-Bold', 'Helvetica';font-weight:700;font-size:29.96px;fill:white;stroke:white;stroke-width:1.58px;">Ô</text>
        </g>
    </g>
</svg>
